<svg width="18" height="22" viewBox="0 0 18 22" fill="none" xmlns="http://www.w3.org/2000/svg">
<path d="M17.013 10.8965L12.1132 5.99674C12.0225 5.87576 11.9072 5.78691 11.7673 5.7302C11.6274 5.67349 11.4819 5.66215 11.3306 5.69617C11.1794 5.7302 11.0509 5.80014 10.945 5.906C10.8392 6.01186 10.7692 6.1404 10.7352 6.29163C10.7012 6.44286 10.7125 6.58842 10.7692 6.7283C10.8259 6.86819 10.9148 6.9835 11.0357 7.07423L14.6312 10.6697H1.53111C1.33451 10.6923 1.17194 10.7774 1.0434 10.9249C0.914858 11.0723 0.850586 11.2424 0.850586 11.4353C0.850586 11.6281 0.914858 11.7982 1.0434 11.9456C1.17194 12.0931 1.33451 12.1782 1.53111 12.2008H14.6312L11.0244 15.8076C10.9034 15.9588 10.8486 16.1328 10.8599 16.3293C10.8713 16.5259 10.9469 16.6923 11.0868 16.8284C11.2267 16.9645 11.3949 17.0382 11.5915 17.0496C11.7881 17.0609 11.962 17.0061 12.1132 16.8851L17.0243 11.9853C17.1756 11.8341 17.2493 11.6526 17.2455 11.4409C17.2417 11.2292 17.1642 11.0477 17.013 10.8965Z" fill="black"/>
</svg>
