<svg width="38" height="30" viewBox="0 0 38 30" fill="none" xmlns="http://www.w3.org/2000/svg">
<path d="M19.9854 28.6008L28.8516 19.9787C29.0705 19.819 29.2313 19.6161 29.3339 19.3699C29.4366 19.1238 29.4571 18.8676 29.3955 18.6015C29.3339 18.3354 29.2074 18.1092 29.0158 17.9229C28.8243 17.7366 28.5917 17.6136 28.318 17.5537C28.0444 17.4938 27.781 17.5138 27.5278 17.6136C27.2747 17.7133 27.0661 17.8697 26.9019 18.0826L20.3959 24.4095L20.3959 1.35719C20.3548 1.01124 20.2009 0.725165 19.9341 0.498966C19.6673 0.272768 19.3594 0.159668 19.0105 0.159668C18.6616 0.159668 18.3538 0.272768 18.0869 0.498966C17.8201 0.725165 17.6662 1.01124 17.6252 1.35719L17.6252 24.4095L11.0986 18.0626C10.825 17.8497 10.5103 17.7533 10.1545 17.7732C9.79878 17.7932 9.49777 17.9262 9.25148 18.1724C9.0052 18.4186 8.87179 18.7146 8.85127 19.0606C8.83075 19.4065 8.92994 19.7125 9.14886 19.9787L18.0151 28.6208C18.2888 28.8869 18.6171 29.0166 19.0002 29.01C19.3834 29.0033 19.7117 28.8669 19.9854 28.6008Z" fill="black"/>
</svg>
