<svg width="17" height="16" viewBox="0 0 17 16" fill="none" xmlns="http://www.w3.org/2000/svg">
<path d="M8.50023 -0.0102348C7.41087 -0.0102348 6.36957 0.198026 5.37633 0.614546C4.42581 1.02039 3.57942 1.59444 2.83716 2.3367C2.0949 3.07896 1.52085 3.92535 1.11501 4.87587C0.698494 5.86911 0.490234 6.91041 0.490234 7.99977C0.490234 9.08913 0.698494 10.1304 1.11501 11.1237C1.52085 12.0742 2.0949 12.9206 2.83716 13.6628C3.57942 14.4051 4.42581 14.9791 5.37633 15.385C6.36957 15.8015 7.41087 16.0098 8.50023 16.0098C9.58959 16.0098 10.6309 15.8015 11.6241 15.385C12.5747 14.9791 13.421 14.4051 14.1633 13.6628C14.9056 12.9206 15.4796 12.0742 15.8855 11.1237C16.302 10.1304 16.5102 9.08913 16.5102 7.99977C16.5102 6.91041 16.2966 5.87445 15.8694 4.89189C15.4636 3.93069 14.8922 3.08163 14.1553 2.34471C13.4184 1.60779 12.5693 1.03641 11.6081 0.630566C10.6256 0.203365 9.58959 -0.0102348 8.50023 -0.0102348ZM13.8029 3.69039C14.2941 4.28847 14.6706 4.9533 14.9323 5.68488C15.1939 6.41646 15.3301 7.17207 15.3408 7.95171C13.7708 7.64199 12.1848 7.56723 10.5828 7.72743L10.4226 7.37499C10.3479 7.18275 10.2251 6.90507 10.0542 6.54195L9.97407 6.38175C10.7217 6.10407 11.4185 5.73828 12.0647 5.28438C12.7108 4.83048 13.2902 4.29915 13.8029 3.69039ZM8.50023 1.17525C9.33327 1.17525 10.1396 1.3221 10.9193 1.6158C11.6989 1.9095 12.4038 2.33403 13.0339 2.88939C12.564 3.46611 12.0246 3.96273 11.4159 4.37925C10.8071 4.79577 10.1503 5.12151 9.44541 5.35647C8.68713 3.96807 7.83807 2.63307 6.89823 1.35147C7.42155 1.23399 7.95555 1.17525 8.50023 1.17525ZM5.58459 1.81605C6.50307 3.08697 7.35213 4.40595 8.13177 5.77299C6.05985 6.31767 3.95055 6.59535 1.80387 6.60603C2.02815 5.55939 2.47137 4.61421 3.13353 3.77049C3.79569 2.92677 4.61271 2.27529 5.58459 1.81605ZM1.65969 8.01579V7.80753C4.05201 7.81821 6.39627 7.49247 8.69247 6.83031C8.94879 7.34295 9.13569 7.72743 9.25317 7.98375L8.98083 8.06385C7.82739 8.48037 6.77274 9.07578 5.81688 9.85008C4.86102 10.6244 4.06269 11.5348 3.42189 12.5815C2.85585 11.9514 2.42064 11.2438 2.11626 10.4588C1.81188 9.67386 1.65969 8.85951 1.65969 8.01579ZM8.50023 14.8563C7.74195 14.8563 7.00236 14.7335 6.28146 14.4879C5.56056 14.2422 4.90107 13.8844 4.30299 13.4145C4.89039 12.3892 5.64867 11.5081 6.57783 10.7712C7.50699 10.0343 8.53761 9.48963 9.66969 9.13719L9.71775 9.12117C10.3692 10.8086 10.8552 12.5388 11.1756 14.3116C10.3212 14.6748 9.42939 14.8563 8.50023 14.8563ZM12.329 13.6869C12.03 12.0208 11.5868 10.3921 10.9994 8.80077C12.4412 8.58717 13.8616 8.68329 15.2607 9.08913C15.1112 10.029 14.7827 10.8967 14.2754 11.6924C13.7681 12.488 13.1193 13.1529 12.329 13.6869Z" fill="#8B7748"/>
</svg>
