<svg width="16" height="13" viewBox="0 0 16 13" fill="none" xmlns="http://www.w3.org/2000/svg">
<path d="M14.5982 0.62014C14.5262 0.556141 14.4422 0.518141 14.3462 0.506141C14.2502 0.494141 14.1582 0.508141 14.0702 0.548141L1.44617 6.04414C1.28617 6.11614 1.16217 6.22614 1.07417 6.37414C0.986168 6.52214 0.948168 6.68214 0.960168 6.85414C0.972168 7.02614 1.03017 7.18014 1.13417 7.31614C1.23817 7.45214 1.37417 7.54414 1.54217 7.59214L4.65017 8.52814C4.73817 8.57614 4.83417 8.59414 4.93817 8.58214C5.04217 8.57014 5.13417 8.53214 5.21417 8.46814C5.29417 8.40414 5.34817 8.32214 5.37617 8.22214C5.40417 8.12214 5.40417 8.02214 5.37617 7.92214C5.34817 7.82214 5.29617 7.74014 5.22017 7.67614C5.14417 7.61214 5.05417 7.57214 4.95017 7.55614L2.33417 6.76414L12.1982 2.46814L6.34217 8.32414L6.31817 8.36014C6.31817 8.36814 6.31617 8.37214 6.31217 8.37214C6.30817 8.37214 6.30617 8.37614 6.30617 8.38414L6.28217 8.42014C6.28217 8.42814 6.27817 8.43614 6.27017 8.44414L6.25817 8.45614C6.25817 8.47214 6.25417 8.48414 6.24617 8.49214C6.23817 8.50014 6.23817 8.50414 6.24617 8.50414L6.23417 8.55214V8.66014L6.39017 11.5641C6.40617 11.7241 6.46017 11.8661 6.55217 11.9901C6.64417 12.1141 6.76417 12.2021 6.91217 12.2541C7.06017 12.3061 7.21217 12.3121 7.36817 12.2721C7.52417 12.2321 7.65417 12.1561 7.75817 12.0441L8.92217 10.7601L11.2262 12.3441C11.3382 12.4241 11.4622 12.4721 11.5982 12.4881C11.7342 12.5041 11.8662 12.4881 11.9942 12.4401C12.1222 12.3921 12.2322 12.3141 12.3242 12.2061C12.4162 12.0981 12.4742 11.9761 12.4982 11.8401L14.7662 1.11214C14.7822 1.02414 14.7762 0.93614 14.7482 0.848141C14.7202 0.76014 14.6702 0.68414 14.5982 0.62014ZM7.38617 10.9521L7.31417 9.64414L8.08217 10.1841L7.38617 10.9521ZM11.5622 11.3481L7.54217 8.56414L13.3862 2.72014L11.5622 11.3481Z" fill="black"/>
</svg>
