<svg width="17" height="16" viewBox="0 0 17 16" fill="none" xmlns="http://www.w3.org/2000/svg">
<path d="M11.512 -0.0102348H5.50449C4.59669 -0.0102348 3.75297 0.219386 2.97333 0.678626C2.21505 1.11651 1.61697 1.71459 1.17909 2.47287C0.719854 3.24183 0.490234 4.08021 0.490234 4.98801V10.9955C0.490234 11.9033 0.719854 12.747 1.17909 13.5267C1.61697 14.2849 2.21505 14.883 2.97333 15.3209C3.75297 15.7801 4.59669 16.0098 5.50449 16.0098H11.512C12.4198 16.0098 13.2582 15.7801 14.0271 15.3209C14.7854 14.883 15.3835 14.2849 15.8214 13.5267C16.2806 12.747 16.5102 11.9033 16.5102 10.9955V4.98801C16.5102 4.08021 16.2806 3.24183 15.8214 2.47287C15.3835 1.71459 14.7854 1.11651 14.0271 0.678626C13.2582 0.219386 12.4198 -0.0102348 11.512 -0.0102348ZM15.0044 10.9955C15.0044 11.6256 14.8468 12.2104 14.5318 12.7497C14.2167 13.289 13.7922 13.7162 13.2582 14.0313C12.7242 14.3464 12.1421 14.5039 11.512 14.5039H5.50449C4.86369 14.5039 4.27629 14.3464 3.74229 14.0313C3.20829 13.7162 2.78376 13.2917 2.4687 12.7577C2.15364 12.2237 1.99611 11.6363 1.99611 10.9955V4.98801C1.99611 4.35789 2.15364 3.77583 2.4687 3.24183C2.78376 2.70783 3.21096 2.2833 3.7503 1.96824C4.28964 1.65318 4.87437 1.49565 5.50449 1.49565H11.512C12.1421 1.49565 12.7242 1.65318 13.2582 1.96824C13.7922 2.2833 14.2167 2.70783 14.5318 3.24183C14.8468 3.77583 15.0044 4.35789 15.0044 4.98801V10.9955ZM8.50023 3.99477C7.77399 3.99477 7.10382 4.17366 6.48972 4.53144C5.87562 4.88922 5.38968 5.37516 5.0319 5.98926C4.67412 6.60336 4.49523 7.27353 4.49523 7.99977C4.49523 8.72601 4.67412 9.39618 5.0319 10.0103C5.38968 10.6244 5.87562 11.1103 6.48972 11.4681C7.10382 11.8259 7.77399 12.0048 8.50023 12.0048C9.22647 12.0048 9.89664 11.8259 10.5107 11.4681C11.1248 11.1103 11.6108 10.6244 11.9686 10.0103C12.3263 9.39618 12.5052 8.72601 12.5052 7.99977C12.5052 7.27353 12.3263 6.60336 11.9686 5.98926C11.6108 5.37516 11.1248 4.88922 10.5107 4.53144C9.89664 4.17366 9.22647 3.99477 8.50023 3.99477ZM8.50023 10.4989C8.05167 10.4989 7.63515 10.3867 7.25067 10.1625C6.86619 9.93819 6.56181 9.63381 6.33753 9.24933C6.11325 8.86485 6.00111 8.44833 6.00111 7.99977C6.00111 7.55121 6.11325 7.13469 6.33753 6.75021C6.56181 6.36573 6.86619 6.06135 7.25067 5.83707C7.63515 5.61279 8.05167 5.50065 8.50023 5.50065C8.94879 5.50065 9.36531 5.61279 9.74979 5.83707C10.1343 6.06135 10.4387 6.36573 10.6629 6.75021C10.8872 7.13469 10.9994 7.55121 10.9994 7.99977C10.9994 8.44833 10.8872 8.86485 10.6629 9.24933C10.4387 9.63381 10.1343 9.93819 9.74979 10.1625C9.36531 10.3867 8.94879 10.4989 8.50023 10.4989ZM12.8096 3.16173C12.9591 3.16173 13.0846 3.21246 13.1861 3.31392C13.2875 3.41538 13.3383 3.54087 13.3383 3.69039C13.3383 3.83991 13.2849 3.96807 13.1781 4.07487C13.0713 4.18167 12.9458 4.23507 12.8016 4.23507C12.6574 4.23507 12.5319 4.18167 12.4251 4.07487C12.3183 3.96807 12.2649 3.83991 12.2649 3.69039C12.2649 3.54087 12.3183 3.41538 12.4251 3.31392C12.5319 3.21246 12.6601 3.16173 12.8096 3.16173Z" fill="#8B7748"/>
</svg>
