<svg width="37" height="41" viewBox="0 0 37 41" fill="none" xmlns="http://www.w3.org/2000/svg">
<path opacity="0.5" d="M17.5828 25.7789C17.5799 25.7801 17.577 25.7814 17.574 25.7826L17.5835 25.7819L17.5828 25.7789C17.8308 25.6685 17.7608 25.4094 17.796 25.2061C18.0116 23.9713 18.0056 22.5338 18.2326 21.3382C18.2648 21.1704 18.2315 20.9594 18.4455 20.8865C18.7278 21.5967 18.9305 22.8335 19.2591 23.4773C20.4955 25.8946 21.4069 28.8449 22.6008 31.4923C23.984 34.5618 25.6591 37.5083 27.5 40.3182L29.571 39.5635C26.7362 35.642 24.1306 31.7084 22.1869 27.2416C21.7998 26.3511 20.6325 23.8422 20.6413 23.0383C20.6439 22.8166 20.8447 22.5486 20.8599 22.2674C20.929 21.0079 20.8618 20.081 20.0835 19.0252C21.2288 19.6069 22.3187 20.6574 23.6869 20.5429L21.6202 18.075C21.5678 17.9687 21.7537 17.9319 21.8262 17.9444C21.9985 17.9756 23.4801 18.9152 23.7161 19.0982C24.7749 19.9209 25.307 21.0947 26.836 21.2111C26.3248 19.9982 25.5393 18.8297 24.5033 18.0014C24.8205 17.7995 25.7784 18.457 26.1317 18.7285C27.4163 19.7125 27.5605 20.5993 28.3977 21.6193C28.6295 21.9018 29.4075 22.1494 29.7213 22.4242C29.6534 21.2813 28.9176 20.3375 28.4619 19.3593C28.3924 19.2105 28.1385 18.911 28.43 18.8768C28.885 19.5036 29.4205 20.0457 29.8565 20.6933C30.554 21.7289 30.8777 23.0499 32.0363 23.6202L31.2774 20.5834L32.8462 22.808C33.3175 23.8227 33.6526 24.8279 34.8446 25.1769L34.1426 22.3679C33.2046 18.6144 27.3352 14.6318 23.4976 15.5909L19.6266 16.5583L21.0138 15.5195L22.8506 14.6217L21.2961 14.8489C21.2058 14.6617 21.5178 14.5353 21.6461 14.4807C22.9497 13.9339 24.1349 14.1588 25.1694 13.8583C25.574 13.7411 25.9793 13.1171 26.4951 13.064C26.4662 12.6518 26.382 12.8438 26.2006 12.802C25.8036 12.7109 25.0613 12.6318 24.6408 12.6079C24.0829 12.5763 23.366 12.8506 22.9664 12.4972C24.5342 11.9618 25.9201 11.9123 27.5345 12.0863C28.4628 12.1867 28.9839 12.6324 29.949 12.0411L27.067 10.8287C28.5608 10.4167 29.9714 11.2789 31.2587 11.4734C31.8924 11.5699 32.519 11.3666 33.1383 11.5667C33.3353 11.3932 33.0909 11.2995 32.9687 11.2042C32.4602 10.8086 31.8439 10.4593 31.2598 10.181C31.2071 10.0731 31.3813 10.0474 31.4663 10.0519C33.1213 10.1497 34.686 11.6478 36.42 10.8289C34.2409 9.4408 31.5494 8.1711 28.8963 8.31308C24.0728 8.5732 20.5767 12.241 18.2251 16.1003C17.6077 14.4494 19.6366 13.2745 19.1934 11.5849C18.9668 11.3624 18.8757 11.7337 18.774 11.8494C18.5334 12.1193 17.8878 13.034 17.7285 13.1577C17.5691 13.2814 17.4207 13.1911 17.4476 12.9891C17.6017 11.8762 18.6302 10.448 19.3581 9.61755C19.9206 8.97689 20.6151 8.9227 20.521 7.86213C20.4979 7.60819 20.4656 7.60818 20.2459 7.69697C19.2971 8.07605 18.2223 8.35755 17.5388 9.17205C17.4424 9.23163 17.3885 9.04183 17.4083 8.96591C17.4686 8.72982 18.5366 7.57565 18.7973 7.34756C19.2656 6.93691 20.447 6.3529 20.7006 6.03788C20.7423 5.9855 21.1905 4.85554 21.2012 4.78835C21.2566 4.44863 20.9348 4.62586 20.7663 4.65506C20.0482 4.78288 19.4748 5.17301 18.8129 5.42231C18.6509 5.48378 18.3374 5.72667 18.3006 5.43742C18.9564 4.92508 19.4653 4.26391 20.1427 3.76713C20.6608 3.38762 21.5682 3.03662 21.9492 2.65747C22.3303 2.27832 22.6741 1.03409 23.0445 0.541441C19.3253 1.92907 15.9249 4.58569 15.6398 8.80776C15.6166 9.14104 15.5741 10.6616 15.6245 10.8636L16.8388 15.7224C16.7284 15.9065 16.7124 16.0944 16.4191 15.9919C16.1098 15.8836 14.4389 14.4315 13.9364 14.1054C9.71712 11.3559 5.80898 10.9936 1.56942 14.1713C1.15386 14.4832 -0.0237686 15.2244 0.463122 15.7012L5.43319 13.9752C5.61761 14.3582 5.39522 14.2621 5.22823 14.4265C4.6935 14.9521 4.06085 15.4151 3.49955 15.9119C4.9777 16.8379 5.62024 15.4335 6.74208 14.8241C7.46201 14.4328 8.19864 14.2116 9.00055 14.0516C9.19522 14.4691 8.93526 14.326 8.75347 14.4763C8.1527 14.9765 7.58684 15.4357 7.13407 16.0828C7.05096 16.202 6.84565 16.1485 7.0278 16.4772C8.45664 16.7606 9.0798 15.9241 10.2578 15.5135C10.9193 15.2821 12.1193 14.9789 12.8081 14.9149C12.947 14.9028 13.2814 14.866 13.2901 15.0751C12.2825 15.2447 11.3519 15.7289 10.5413 16.3316C10.4122 16.4283 10.1974 16.4336 10.295 16.6303C11.9287 17.1141 13.5758 16.496 15.2657 16.5205C15.3352 16.7403 14.7875 16.9239 14.6369 16.9793C12.9211 17.6001 11.2376 17.9821 9.58788 18.8541C5.72521 20.8939 3.89892 24.6671 3.52119 28.8929C3.66008 29.0808 3.81076 28.8383 3.91778 28.7438C4.24378 28.4542 5.57399 27.149 5.75085 26.8757C6.05636 26.4009 6.2678 24.7623 6.59343 24.0259C6.85531 23.4346 7.29821 22.8835 7.60297 22.3088L7.39832 25.6719C7.38617 25.8814 7.50723 25.9593 7.67497 25.8367C8.73002 25.0697 8.81964 23.2921 9.41095 22.1022C9.67396 21.5735 9.99883 21.0664 10.4129 20.6387L10.0561 22.2314L9.91943 23.8271C11.4777 23.0215 11.6865 21.1463 12.9935 19.9937L12.3275 21.7879L12.2341 22.4404L15.8004 19.2923C14.9521 21.0933 13.5153 22.6687 12.8985 24.5829C11.6407 28.4818 13.4076 32.9057 15.6508 36.1055L15.7157 34.397L14.2832 29.9944C15.0065 30.4299 15.3321 31.5068 15.9059 32.1249C16.0452 32.2756 15.9609 32.3838 16.293 32.2346C16.0395 31.8011 16.2908 31.2318 16.2221 30.8601C16.0616 30.0049 15.457 28.9929 15.2419 28.0545C15.0787 27.3435 15.0844 26.3725 14.9668 25.6308L16.7849 29.0466C16.629 28.5258 17.051 27.8718 17.0256 27.4474C16.9941 26.9213 16.686 26.3272 16.6196 25.784C16.4727 24.5769 16.5194 23.3828 16.5225 22.1753C17.0937 21.9567 16.7346 22.3852 16.7677 22.5173L17.5828 25.7789Z" fill="#CFC4A6"/>
</svg>
