<svg xmlns="http://www.w3.org/2000/svg" width="20" height="27" viewBox="0 0 20 27" fill="none">
  <path d="M19.7249 13.0178L13.7786 6.95144C13.6685 6.80165 13.5286 6.69165 13.3588 6.62144C13.189 6.55122 13.0124 6.53718 12.8289 6.57931C12.6453 6.62144 12.4893 6.70803 12.3609 6.8391C12.2324 6.97016 12.1475 7.12931 12.1062 7.31654C12.0649 7.50378 12.0787 7.68399 12.1475 7.85718C12.2163 8.03037 12.3242 8.17314 12.471 8.28548L16.8344 12.737H0.936229C0.697642 12.765 0.500349 12.8704 0.34435 13.0529C0.188351 13.2355 0.110352 13.4461 0.110352 13.6848C0.110352 13.9236 0.188351 14.1342 0.34435 14.3167C0.500349 14.4993 0.697642 14.6046 0.936229 14.6327H16.8344L12.4572 19.0982C12.3104 19.2855 12.2439 19.5008 12.2576 19.7442C12.2714 19.9876 12.3632 20.1935 12.5329 20.3621C12.7027 20.5306 12.9069 20.6218 13.1455 20.6359C13.384 20.6499 13.5951 20.5821 13.7786 20.4323L19.7387 14.3659C19.9222 14.1787 20.0117 13.954 20.0071 13.6919C20.0025 13.4297 19.9085 13.205 19.7249 13.0178Z" fill="#C5A880"/>
</svg>
