<svg xmlns="http://www.w3.org/2000/svg" width="20" height="27" viewBox="0 0 20 27" fill="none">
  <path d="M0.275059 13.0178L6.22138 6.95144C6.33149 6.80165 6.47143 6.69165 6.6412 6.62144C6.81096 6.55122 6.98761 6.53718 7.17113 6.57931C7.35466 6.62144 7.51066 6.70803 7.63913 6.8391C7.7676 6.97016 7.85248 7.12931 7.89378 7.31654C7.93507 7.50378 7.92131 7.68399 7.85248 7.85718C7.78366 8.03037 7.67584 8.17314 7.52902 8.28548L3.16563 12.737H19.0638C19.3024 12.765 19.4997 12.8704 19.6556 13.0529C19.8116 13.2355 19.8896 13.4461 19.8896 13.6848C19.8896 13.9236 19.8116 14.1342 19.6556 14.3167C19.4997 14.4993 19.3024 14.6046 19.0638 14.6327H3.16563L7.54278 19.0982C7.6896 19.2855 7.75613 19.5008 7.74237 19.7442C7.7286 19.9876 7.63684 20.1935 7.46707 20.3621C7.29731 20.5306 7.09314 20.6218 6.85455 20.6359C6.61596 20.6499 6.4049 20.5821 6.22138 20.4323L0.261293 14.3659C0.0777664 14.1787 -0.0117054 13.954 -0.00711632 13.6919C-0.00252724 13.4297 0.0915298 13.205 0.275059 13.0178Z" fill="#C5A880"/>
</svg>
