<svg width="21" height="22" viewBox="0 0 21 22" fill="none" xmlns="http://www.w3.org/2000/svg">
<g clip-path="url(#clip0_7061_1575)">
<path d="M18.513 10.1155L13.6132 5.21573C13.5225 5.09475 13.4072 5.00591 13.2673 4.94919C13.1274 4.89248 12.9819 4.88114 12.8306 4.91517C12.6794 4.94919 12.5509 5.01914 12.445 5.125C12.3392 5.23085 12.2692 5.3594 12.2352 5.51063C12.2012 5.66185 12.2125 5.80741 12.2692 5.9473C12.3259 6.08718 12.4148 6.20249 12.5357 6.29323L16.1312 9.88866H3.03111C2.83451 9.91134 2.67194 9.99641 2.5434 10.1439C2.41486 10.2913 2.35059 10.4614 2.35059 10.6542C2.35059 10.8471 2.41486 11.0172 2.5434 11.1646C2.67194 11.3121 2.83451 11.3972 3.03111 11.4198H16.1312L12.5244 15.0266C12.4034 15.1778 12.3486 15.3517 12.3599 15.5483C12.3713 15.7449 12.4469 15.9113 12.5868 16.0474C12.7267 16.1835 12.8949 16.2572 13.0915 16.2686C13.2881 16.2799 13.462 16.2251 13.6132 16.1041L18.5243 11.2043C18.6756 11.0531 18.7493 10.8716 18.7455 10.6599C18.7417 10.4482 18.6642 10.2667 18.513 10.1155Z" fill="black"/>
</g>
<defs>
<clipPath id="clip0_7061_1575">
<rect width="21" height="21" fill="white" transform="translate(0 0.159912)"/>
</clipPath>
</defs>
</svg>
